<svg xmlns="http://www.w3.org/2000/svg" width="60" height="18"  fill-rule="evenodd" opacity=".9" xmlns:v="https://vecta.io/nano"><path d="M8.418 13.373c-.089 0-.159-.046-.212-.095L3.791 8.859c-.047-.05-.093-.114-.093-.206a.3.3 0 0 1 .09-.204L.558 5.635C.198 6.573 0 7.591 0 8.655c0 4.646 3.767 8.413 8.413 8.413 1.064 0 2.083-.198 3.02-.558l-2.766-3.275c-.057.058-.123.138-.249.138" fill="#1a56f0"/><path d="M13.007 8.407l.04.04c.047.05.093.114.093.206 0 .085-.042.149-.088.2l-5.755 5.75a3.42 3.42 0 0 1-4.83.002c1.522 1.521 3.624 2.463 5.946 2.463 4.646 0 8.413-3.767 8.413-8.413l-3.819-.248z" fill="#2176ff"/><path d="M8.413.242L8.2 4.036c.005-.005.021-.021.044-.039.045-.036.1-.065.174-.065.092 0 .16.049.213.1l4.415 4.415 1.316 1.324a3.42 3.42 0 0 1 .003 4.829c1.52-1.522 2.461-3.623 2.461-5.944 0-4.646-3.767-8.413-8.413-8.413" fill="#1a56f0"/><path d="M2.465 9.771L9.53 2.706a3.42 3.42 0 0 1 4.832 0h0C12.84 1.184 10.736.242 8.413.242 3.767.242 0 4.009 0 8.655c0 2.322.941 4.424 2.463 5.946a3.42 3.42 0 0 1 .002-4.83" fill="#2176ff"/><path d="M24.405 6.593c-1.015 0-1.522.809-1.522 2.078s.523 2.046 1.538 2.046 1.522-.793 1.522-2.062c0-1.253-.523-2.062-1.538-2.062m-.032 5.995c-2.22 0-3.917-1.396-3.917-3.902s1.776-3.949 4.013-3.949 3.901 1.427 3.901 3.901-1.792 3.949-3.997 3.949M38.52 8.005c0-.888-.381-1.19-.999-1.19-.492 0-.888.222-1.189.476v5.059H33.89V8.005c0-.888-.397-1.19-1.015-1.19a1.82 1.82 0 0 0-1.19.444v5.091h-2.442V4.888l2.442-.005v.949c.65-.682 1.38-1.094 2.347-1.094.936 0 1.713.444 2.078 1.316.682-.809 1.539-1.316 2.554-1.316 1.443 0 2.299.967 2.299 2.553v5.059H38.52V8.005zm3.679-3.117l2.442-.005v7.467h-2.442V4.888zm1.221-.959c-.888 0-1.443-.46-1.443-1.3 0-.872.555-1.316 1.443-1.316.904 0 1.443.444 1.443 1.316 0 .841-.539 1.3-1.443 1.3h0zm5.166 8.659c-1.015 0-2.347-.222-3.124-.65l.476-1.76c.872.444 1.824.698 2.696.698.666 0 .999-.206.999-.603 0-.428-.412-.571-1.253-.761-1.713-.349-2.807-.967-2.807-2.411 0-1.38 1.205-2.363 3.251-2.363.983 0 2.268.286 2.997.635l-.492 1.745c-.841-.428-1.84-.666-2.538-.666-.603 0-.904.19-.904.555 0 .396.46.555 1.269.729 1.729.381 2.776.952 2.776 2.427 0 1.332-1.174 2.427-3.346 2.427m8.755-4.76c0-.888-.365-1.411-1.126-1.411-.841 0-1.348.729-1.427 1.57l2.553-.016V7.83zm-.619 2.966c.809 0 1.665-.286 2.411-.714l.238 1.887c-.745.38-1.792.603-2.871.603-2.49 0-4.123-1.38-4.123-3.854 0-2.411 1.649-3.981 3.997-3.981 2.094 0 3.235 1.253 3.235 3.093 0 .396-.048.983-.159 1.3l-4.678.079v.032c.079.999.745 1.554 1.95 1.554h0z" fill="#2c3d4d"/></svg>